<svg width="172" height="60" viewBox="0 0 172 60" fill="none" xmlns="http://www.w3.org/2000/svg">
<rect width="171.469" height="59.9862" rx="8.32938" fill="black"/>
<path d="M37.201 29.0721C37.2159 27.9134 37.5237 26.7773 38.0956 25.7695C38.6676 24.7617 39.4852 23.915 40.4724 23.3081C39.8453 22.4125 39.018 21.6754 38.0562 21.1554C37.0944 20.6355 36.0246 20.3469 34.9317 20.3127C32.6006 20.068 30.3406 21.7077 29.1527 21.7077C27.9418 21.7077 26.1128 20.337 24.1433 20.3776C22.8693 20.4187 21.6278 20.7892 20.5396 21.4528C19.4514 22.1165 18.5536 23.0507 17.9338 24.1645C15.249 28.8128 17.2516 35.6444 19.8235 39.4018C21.1102 41.2417 22.6141 43.2969 24.5818 43.224C26.5074 43.1441 27.2265 41.9961 29.5508 41.9961C31.8536 41.9961 32.5283 43.224 34.536 43.1777C36.6022 43.1441 37.904 41.3296 39.1456 39.4723C40.0701 38.1613 40.7816 36.7124 41.2535 35.1792C40.0531 34.6715 39.0287 33.8216 38.3081 32.7356C37.5874 31.6496 37.2024 30.3755 37.201 29.0721Z" fill="white"/>
<path d="M33.4088 17.8419C34.5353 16.4895 35.0904 14.7511 34.956 12.9961C33.2348 13.1769 31.6449 13.9995 30.5031 15.3C29.9448 15.9354 29.5173 16.6745 29.2448 17.4752C28.9724 18.2759 28.8605 19.1224 28.9154 19.9664C29.7763 19.9753 30.628 19.7887 31.4063 19.4207C32.1846 19.0527 32.8693 18.5128 33.4088 17.8419Z" fill="white"/>
<path d="M61.5411 38.5663H54.97L53.392 43.2259H50.6088L56.8328 25.9868H59.7244L65.9484 43.2259H63.1177L61.5411 38.5663ZM55.6506 36.4162H60.8592L58.2915 28.8541H58.2197L55.6506 36.4162Z" fill="white"/>
<path d="M79.3903 36.9421C79.3903 40.8479 77.2998 43.3573 74.1451 43.3573C73.346 43.3991 72.5512 43.215 71.8518 42.8261C71.1524 42.4372 70.5767 41.8592 70.1905 41.1583H70.1308V47.3837H67.551V30.6571H70.0482V32.7476H70.0956C70.4996 32.0501 71.085 31.4751 71.7897 31.0838C72.4944 30.6926 73.292 30.4997 74.0977 30.5256C77.2875 30.5256 79.3903 33.0472 79.3903 36.9421ZM76.7385 36.9421C76.7385 34.3975 75.4235 32.7246 73.4171 32.7246C71.4459 32.7246 70.12 34.4328 70.12 36.9421C70.12 39.4746 71.4459 41.1706 73.4171 41.1706C75.4235 41.1706 76.7385 39.5098 76.7385 36.9421Z" fill="white"/>
<path d="M93.2239 36.9421C93.2239 40.8479 91.1334 43.3573 87.9787 43.3573C87.1796 43.3991 86.3848 43.215 85.6854 42.8261C84.9861 42.4372 84.4103 41.8592 84.0242 41.1583H83.9645V47.3837H81.3846V30.6571H83.8818V32.7476H83.9292C84.3331 32.0501 84.9186 31.4751 85.6233 31.0838C86.328 30.6926 87.1256 30.4996 87.9312 30.5256C91.1212 30.5256 93.2239 33.0472 93.2239 36.9421ZM90.5722 36.9421C90.5722 34.3975 89.2571 32.7246 87.2507 32.7246C85.2795 32.7246 83.9537 34.4327 83.9537 36.9421C83.9537 39.4746 85.2795 41.1705 87.2507 41.1705C89.2571 41.1705 90.5722 39.5098 90.5722 36.9421H90.5722Z" fill="white"/>
<path d="M102.367 38.4224C102.558 40.1319 104.219 41.2543 106.488 41.2543C108.663 41.2543 110.227 40.1318 110.227 38.5904C110.227 37.2523 109.283 36.4511 107.049 35.9021L104.815 35.3638C101.65 34.5992 100.18 33.1188 100.18 30.7165C100.18 27.7421 102.772 25.6991 106.453 25.6991C110.095 25.6991 112.593 27.7421 112.677 30.7165H110.072C109.917 28.9961 108.494 27.9577 106.416 27.9577C104.338 27.9577 102.916 29.0084 102.916 30.5376C102.916 31.7563 103.824 32.4735 106.046 33.0225L107.945 33.4889C111.482 34.3253 112.952 35.7461 112.952 38.2677C112.952 41.4929 110.383 43.5129 106.297 43.5129C102.474 43.5129 99.8925 41.5403 99.7258 38.4222L102.367 38.4224Z" fill="white"/>
<path d="M118.52 27.6827V30.6571H120.91V32.7002H118.52V39.6291C118.52 40.7055 118.998 41.2071 120.049 41.2071C120.333 41.2022 120.616 41.1823 120.898 41.1474V43.1783C120.425 43.2665 119.945 43.3065 119.465 43.2976C116.92 43.2976 115.928 42.3418 115.928 39.9043V32.7002H114.1V30.6571H115.928V27.6827H118.52Z" fill="white"/>
<path d="M122.294 36.942C122.294 32.9874 124.623 30.5024 128.255 30.5024C131.899 30.5024 134.217 32.9874 134.217 36.942C134.217 40.9074 131.911 43.3815 128.255 43.3815C124.6 43.3815 122.294 40.9074 122.294 36.942ZM131.588 36.942C131.588 34.2292 130.345 32.6282 128.255 32.6282C126.164 32.6282 124.923 34.2414 124.923 36.942C124.923 39.6656 126.164 41.2544 128.255 41.2544C130.345 41.2544 131.588 39.6656 131.588 36.942H131.588Z" fill="white"/>
<path d="M136.344 30.657H138.805V32.7963H138.865C139.031 32.1281 139.423 31.5377 139.973 31.1242C140.524 30.7106 141.2 30.4992 141.888 30.5255C142.185 30.5245 142.482 30.5568 142.772 30.6218V33.0349C142.396 32.9202 142.005 32.8675 141.613 32.879C141.238 32.8638 140.864 32.9299 140.517 33.0727C140.17 33.2155 139.859 33.4317 139.603 33.7064C139.348 33.9812 139.155 34.3079 139.038 34.6642C138.921 35.0205 138.882 35.398 138.924 35.7707V43.2256H136.344L136.344 30.657Z" fill="white"/>
<path d="M154.667 39.5341C154.319 41.8157 152.098 43.3815 149.255 43.3815C145.598 43.3815 143.329 40.9318 143.329 37.0016C143.329 33.0593 145.611 30.5024 149.146 30.5024C152.624 30.5024 154.81 32.8912 154.81 36.702V37.5859H145.933V37.7418C145.892 38.2044 145.95 38.6704 146.103 39.1088C146.256 39.5473 146.501 39.9482 146.82 40.2849C147.14 40.6216 147.528 40.8864 147.958 41.0618C148.388 41.2371 148.85 41.319 149.314 41.3019C149.924 41.359 150.536 41.2178 151.059 40.8993C151.582 40.5808 151.988 40.102 152.217 39.5341L154.667 39.5341ZM145.945 35.7829H152.229C152.252 35.367 152.189 34.9508 152.044 34.5604C151.898 34.17 151.674 33.8139 151.385 33.5143C151.095 33.2148 150.747 32.9783 150.362 32.8198C149.976 32.6612 149.563 32.584 149.146 32.5929C148.726 32.5904 148.31 32.6711 147.921 32.8304C147.532 32.9897 147.179 33.2244 146.881 33.521C146.584 33.8176 146.348 34.1701 146.187 34.5583C146.026 34.9466 145.944 35.3627 145.945 35.7829V35.7829Z" fill="white"/>
<path d="M55.3275 13.0109C55.8684 12.9721 56.4111 13.0538 56.9166 13.2501C57.4221 13.4464 57.8777 13.7525 58.2505 14.1463C58.6234 14.54 58.9042 15.0116 59.0728 15.527C59.2413 16.0424 59.2933 16.5888 59.2251 17.1267C59.2251 19.7731 57.7949 21.2942 55.3275 21.2942H52.3355V13.0109H55.3275ZM53.6221 20.1228H55.1838C55.5703 20.1459 55.9571 20.0825 56.316 19.9373C56.6749 19.792 56.9969 19.5686 57.2586 19.2832C57.5203 18.9979 57.715 18.6577 57.8286 18.2876C57.9423 17.9175 57.972 17.5267 57.9155 17.1436C57.9679 16.7621 57.9352 16.3737 57.8198 16.0063C57.7044 15.6389 57.5092 15.3015 57.2481 15.0184C56.987 14.7353 56.6666 14.5135 56.3097 14.3688C55.9528 14.2241 55.5683 14.1601 55.1838 14.1814H53.6221V20.1228Z" fill="white"/>
<path d="M60.6786 18.1655C60.6393 17.7547 60.6863 17.3403 60.8165 16.9487C60.9468 16.5571 61.1575 16.1971 61.435 15.8917C61.7126 15.5863 62.0509 15.3423 62.4283 15.1753C62.8057 15.0084 63.2138 14.9221 63.6265 14.9221C64.0392 14.9221 64.4473 15.0084 64.8247 15.1753C65.2021 15.3423 65.5404 15.5863 65.818 15.8917C66.0956 16.1971 66.3062 16.5571 66.4365 16.9487C66.5668 17.3403 66.6138 17.7547 66.5745 18.1655C66.6145 18.5768 66.5681 18.9918 66.4382 19.384C66.3082 19.7762 66.0977 20.1369 65.82 20.4429C65.5424 20.7489 65.2038 20.9934 64.8261 21.1608C64.4483 21.3281 64.0397 21.4145 63.6265 21.4145C63.2133 21.4145 62.8047 21.3281 62.427 21.1608C62.0492 20.9934 61.7106 20.7489 61.433 20.4429C61.1553 20.1369 60.9448 19.7762 60.8149 19.384C60.6849 18.9918 60.6385 18.5768 60.6786 18.1655ZM65.3055 18.1655C65.3055 16.8105 64.6968 16.0181 63.6285 16.0181C62.5562 16.0181 61.953 16.8105 61.953 18.1656C61.953 19.5314 62.5562 20.3177 63.6285 20.3177C64.6968 20.3177 65.3055 19.526 65.3055 18.1655H65.3055Z" fill="white"/>
<path d="M74.4118 21.2938H73.1321L71.8401 16.6899H71.7425L70.4559 21.2938H69.1884L67.4653 15.0427H68.7166L69.8364 19.8127H69.9286L71.2138 15.0427H72.3973L73.6825 19.8127H73.7801L74.8945 15.0427H76.1281L74.4118 21.2938Z" fill="white"/>
<path d="M77.5773 15.0426H78.7649V16.0356H78.8571C79.0134 15.679 79.2772 15.38 79.6116 15.1803C79.946 14.9807 80.3343 14.8904 80.7225 14.9219C81.0266 14.8991 81.3321 14.9449 81.6161 15.0561C81.9001 15.1673 82.1555 15.341 82.3633 15.5643C82.5711 15.7876 82.726 16.0547 82.8165 16.346C82.907 16.6373 82.9308 16.9452 82.8862 17.2469V21.2936H81.6525V17.5567C81.6525 16.5522 81.216 16.0526 80.3036 16.0526C80.0971 16.043 79.8909 16.0781 79.6993 16.1556C79.5076 16.2331 79.335 16.3512 79.1932 16.5016C79.0514 16.6521 78.9439 16.8314 78.8779 17.0273C78.8119 17.2233 78.7891 17.4311 78.8109 17.6367V21.2937H77.5773L77.5773 15.0426Z" fill="white"/>
<path d="M84.8519 12.6025H86.0856V21.2939H84.8519V12.6025Z" fill="white"/>
<path d="M87.8006 18.1657C87.7613 17.7548 87.8083 17.3403 87.9387 16.9487C88.069 16.5571 88.2797 16.1971 88.5573 15.8917C88.8348 15.5863 89.1732 15.3423 89.5506 15.1753C89.928 15.0084 90.3362 14.9221 90.7489 14.9221C91.1616 14.9221 91.5697 15.0084 91.9472 15.1753C92.3246 15.3423 92.6629 15.5863 92.9405 15.8917C93.2181 16.1971 93.4288 16.5571 93.5591 16.9487C93.6894 17.3403 93.7365 17.7548 93.6972 18.1657C93.7372 18.5769 93.6907 18.992 93.5607 19.3842C93.4308 19.7764 93.2202 20.1371 92.9425 20.443C92.6649 20.749 92.3262 20.9935 91.9485 21.1608C91.5707 21.3282 91.1621 21.4146 90.7489 21.4146C90.3357 21.4146 89.9271 21.3282 89.5493 21.1608C89.1715 20.9935 88.8329 20.749 88.5553 20.443C88.2776 20.1371 88.067 19.7764 87.937 19.3842C87.8071 18.992 87.7606 18.5769 87.8006 18.1657ZM92.4276 18.1657C92.4276 16.8107 91.8189 16.0183 90.7506 16.0183C89.6782 16.0183 89.075 16.8107 89.075 18.1657C89.075 19.5315 89.6783 20.3178 90.7506 20.3178C91.8189 20.3178 92.4276 19.5261 92.4276 18.1657H92.4276Z" fill="white"/>
<path d="M94.9958 19.526C94.9958 18.4008 95.8336 17.7521 97.3208 17.6599L99.0141 17.5623V17.0228C99.0141 16.3625 98.5776 15.9897 97.7343 15.9897C97.0456 15.9897 96.5684 16.2426 96.4315 16.6845H95.2371C95.3632 15.6108 96.3732 14.9221 97.7913 14.9221C99.3584 14.9221 100.242 15.7023 100.242 17.0228V21.2939H99.0548V20.4154H98.9572C98.759 20.7305 98.4808 20.9874 98.151 21.1598C97.8211 21.3323 97.4513 21.4141 97.0795 21.3969C96.8171 21.4242 96.5519 21.3962 96.3009 21.3147C96.05 21.2332 95.8189 21.1 95.6226 20.9238C95.4263 20.7475 95.2691 20.5321 95.1611 20.2913C95.0532 20.0506 94.9969 19.7899 94.9958 19.526ZM99.0141 18.9919V18.4693L97.4876 18.5669C96.6267 18.6245 96.2363 18.9173 96.2363 19.4684C96.2363 20.031 96.7243 20.3584 97.3954 20.3584C97.5921 20.3783 97.7907 20.3585 97.9795 20.3C98.1683 20.2416 98.3434 20.1458 98.4945 20.0183C98.6455 19.8908 98.7693 19.7342 98.8586 19.5579C98.9479 19.3816 99.0007 19.1891 99.0141 18.9919Z" fill="white"/>
<path d="M101.864 18.1656C101.864 16.1904 102.879 14.9391 104.459 14.9391C104.849 14.9211 105.237 15.0147 105.577 15.2089C105.916 15.4031 106.193 15.6899 106.376 16.0358H106.468V12.6025H107.702V21.2939H106.519V20.3063H106.422C106.225 20.6498 105.938 20.9331 105.592 21.1253C105.246 21.3176 104.854 21.4115 104.459 21.3969C102.869 21.397 101.864 20.1456 101.864 18.1656ZM103.138 18.1656C103.138 19.4915 103.763 20.2893 104.809 20.2893C105.848 20.2893 106.491 19.48 106.491 18.1711C106.491 16.8683 105.842 16.0474 104.809 16.0474C103.77 16.0474 103.138 16.8506 103.138 18.1656H103.138Z" fill="white"/>
<path d="M112.806 18.1655C112.766 17.7547 112.813 17.3403 112.944 16.9487C113.074 16.5571 113.285 16.1971 113.562 15.8917C113.84 15.5863 114.178 15.3423 114.555 15.1753C114.933 15.0084 115.341 14.9221 115.754 14.9221C116.166 14.9221 116.574 15.0084 116.952 15.1753C117.329 15.3423 117.668 15.5863 117.945 15.8917C118.223 16.1971 118.433 16.5571 118.564 16.9487C118.694 17.3403 118.741 17.7547 118.702 18.1655C118.742 18.5768 118.695 18.9918 118.565 19.384C118.435 19.7762 118.225 20.1369 117.947 20.4429C117.67 20.7489 117.331 20.9934 116.953 21.1608C116.575 21.3281 116.167 21.4145 115.754 21.4145C115.341 21.4145 114.932 21.3281 114.554 21.1608C114.176 20.9934 113.838 20.7489 113.56 20.4429C113.283 20.1369 113.072 19.7762 112.942 19.384C112.812 18.9918 112.766 18.5768 112.806 18.1655ZM117.433 18.1655C117.433 16.8105 116.824 16.0181 115.756 16.0181C114.683 16.0181 114.08 16.8105 114.08 18.1656C114.08 19.5314 114.683 20.3177 115.756 20.3177C116.824 20.3177 117.433 19.526 117.433 18.1655Z" fill="white"/>
<path d="M120.357 15.0426H121.545V16.0356H121.637C121.793 15.679 122.057 15.38 122.391 15.1803C122.726 14.9807 123.114 14.8904 123.502 14.9219C123.806 14.8991 124.112 14.9449 124.396 15.0561C124.68 15.1673 124.935 15.341 125.143 15.5643C125.351 15.7876 125.506 16.0547 125.596 16.346C125.687 16.6373 125.71 16.9452 125.666 17.2469V21.2936H124.432V17.5567C124.432 16.5522 123.996 16.0526 123.083 16.0526C122.877 16.043 122.671 16.0781 122.479 16.1556C122.287 16.2331 122.115 16.3512 121.973 16.5016C121.831 16.6521 121.724 16.8314 121.658 17.0273C121.592 17.2233 121.569 17.4311 121.591 17.6367V21.2937H120.357V15.0426Z" fill="white"/>
<path d="M132.637 13.4866V15.0714H133.991V16.1105H132.637V19.3249C132.637 19.9797 132.907 20.2664 133.521 20.2664C133.678 20.2659 133.835 20.2564 133.991 20.2379V21.2655C133.77 21.3052 133.545 21.3263 133.32 21.3286C131.948 21.3286 131.402 20.8459 131.402 19.6407V16.1105H130.409V15.0713H131.402V13.4866H132.637Z" fill="white"/>
<path d="M135.676 12.6025H136.899V16.0474H136.997C137.161 15.6874 137.432 15.3867 137.773 15.1863C138.114 14.9859 138.508 14.8956 138.903 14.9276C139.205 14.9111 139.508 14.9616 139.789 15.0755C140.069 15.1894 140.322 15.3639 140.527 15.5864C140.733 15.809 140.887 16.0743 140.978 16.3632C141.07 16.6521 141.096 16.9577 141.056 17.258V21.2939H139.821V17.5623C139.821 16.5639 139.356 16.0582 138.484 16.0582C138.272 16.0408 138.059 16.07 137.859 16.1436C137.659 16.2173 137.478 16.3336 137.328 16.4846C137.179 16.6355 137.063 16.8174 136.991 17.0175C136.919 17.2176 136.891 17.4311 136.91 17.643V21.2939H135.676L135.676 12.6025Z" fill="white"/>
<path d="M148.249 19.6061C148.081 20.1775 147.718 20.6716 147.223 21.0022C146.728 21.3329 146.132 21.4788 145.54 21.4146C145.128 21.4255 144.719 21.3466 144.341 21.1835C143.963 21.0203 143.624 20.7768 143.35 20.4698C143.075 20.1628 142.87 19.7997 142.75 19.4057C142.629 19.0117 142.596 18.5962 142.653 18.1881C142.598 17.7787 142.632 17.3623 142.752 16.9672C142.872 16.572 143.075 16.2072 143.349 15.8975C143.622 15.5878 143.958 15.3405 144.336 15.1722C144.713 15.004 145.122 14.9187 145.535 14.9222C147.274 14.9222 148.323 16.1105 148.323 18.0735V18.504H143.909V18.5731C143.89 18.8025 143.919 19.0334 143.994 19.251C144.069 19.4686 144.189 19.6681 144.346 19.8367C144.502 20.0053 144.693 20.1393 144.904 20.2301C145.116 20.3209 145.344 20.3665 145.574 20.3639C145.869 20.3994 146.168 20.3462 146.433 20.2113C146.698 20.0763 146.917 19.8657 147.061 19.6061L148.249 19.6061ZM143.909 17.5916H147.067C147.082 17.3818 147.054 17.171 146.983 16.9729C146.912 16.7748 146.801 16.5937 146.656 16.4412C146.511 16.2886 146.336 16.1681 146.142 16.0874C145.947 16.0066 145.738 15.9674 145.528 15.9722C145.315 15.9695 145.103 16.0096 144.905 16.09C144.708 16.1705 144.528 16.2897 144.377 16.4406C144.226 16.5915 144.107 16.7711 144.027 16.9688C143.947 17.1665 143.907 17.3782 143.909 17.5916H143.909Z" fill="white"/>
</svg>
