<svg width="26" height="31" viewBox="0 0 26 31" fill="none" xmlns="http://www.w3.org/2000/svg">
<path d="M21.201 16.0721C21.2159 14.9134 21.5237 13.7773 22.0956 12.7695C22.6676 11.7617 23.4852 10.915 24.4724 10.3081C23.8453 9.41246 23.018 8.67539 22.0562 8.15543C21.0944 7.63546 20.0246 7.34693 18.9317 7.31274C16.6006 7.06805 14.3406 8.70767 13.1527 8.70767C11.9418 8.70767 10.1128 7.33703 8.14326 7.37755C6.86931 7.41871 5.62776 7.78917 4.53955 8.45282C3.45135 9.11648 2.55361 10.0507 1.93382 11.1645C-0.751022 15.8128 1.25162 22.6444 3.82347 26.4018C5.11022 28.2417 6.61407 30.2969 8.58181 30.224C10.5074 30.1441 11.2265 28.9961 13.5508 28.9961C15.8536 28.9961 16.5283 30.224 18.536 30.1777C20.6022 30.1441 21.904 28.3296 23.1456 26.4723C24.0701 25.1613 24.7816 23.7124 25.2535 22.1792C24.0531 21.6715 23.0287 20.8216 22.3081 19.7356C21.5874 18.6496 21.2024 17.3755 21.201 16.0721Z" fill="white"/>
<path d="M17.4088 4.84188C18.5353 3.48945 19.0904 1.75114 18.956 -0.00390625C17.2348 0.17687 15.6449 0.999478 14.5031 2.30001C13.9448 2.93536 13.5173 3.6745 13.2448 4.47519C12.9724 5.27588 12.8605 6.12242 12.9154 6.9664C13.7763 6.97526 14.628 6.78867 15.4063 6.42066C16.1846 6.05266 16.8693 5.51285 17.4088 4.84188Z" fill="white"/>
</svg>
