<svg width="36" height="36" viewBox="0 0 36 36" fill="none" xmlns="http://www.w3.org/2000/svg">
<g clip-path="url(#clip0_1621_4779)">
<rect width="36" height="36" rx="4" fill="#6867E2"/>
<path d="M9.25871 7.08001H21.4458C25.0048 7.08001 28.0958 7.46285 30.719 8.22853C33.3421 8.99421 35.5116 10.0931 37.2273 11.5252C38.9571 12.9431 40.2403 14.673 41.0769 16.7148C41.9277 18.7424 42.3531 21.0253 42.3531 23.5634C42.3531 25.9739 41.9348 28.2071 41.0982 30.2631C40.2616 32.3049 38.9855 34.0773 37.2698 35.5803C35.5541 37.0691 33.3847 38.2389 30.7615 39.0896C28.1384 39.9262 25.0473 40.3445 21.4883 40.3445L9.25871 40.3232V7.08001ZM23.1047 34.4956C25.1182 34.4956 26.8835 34.2403 28.4007 33.7299C29.9179 33.2053 31.1798 32.4679 32.1865 31.5179C33.2074 30.5679 33.9731 29.4194 34.4836 28.0724C34.994 26.7254 35.2493 25.2224 35.2493 23.5634C35.2493 21.9328 34.994 20.4652 34.4836 19.1607C33.9731 17.8421 33.2074 16.729 32.1865 15.8215C31.1798 14.8999 29.9179 14.1909 28.4007 13.6946C26.8835 13.1984 25.1182 12.9502 23.1047 12.9502H16.0009V34.4956H23.1047Z" fill="white"/>
</g>
<defs>
<clipPath id="clip0_1621_4779">
<rect width="36" height="36" rx="4" fill="white"/>
</clipPath>
</defs>
</svg>
