<svg width="18" height="20" viewBox="0 0 18 20" fill="none" xmlns="http://www.w3.org/2000/svg">
<path d="M9.00037 12.5V14.5M4.00037 8.0288C4.47179 8 5.05296 8 5.80037 8H12.2004C12.9478 8 13.529 8 14.0004 8.0288M4.00037 8.0288C3.41205 8.0647 2.99466 8.1455 2.6384 8.327C2.07391 8.6146 1.61497 9.0735 1.32735 9.638C1.00037 10.2798 1.00037 11.1198 1.00037 12.8V14.2C1.00037 15.8802 1.00037 16.7202 1.32735 17.362C1.61497 17.9265 2.07391 18.3854 2.6384 18.673C3.28013 19 4.12021 19 5.80037 19H12.2004C13.8806 19 14.7206 19 15.3624 18.673C15.9269 18.3854 16.3858 17.9265 16.6734 17.362C17.0004 16.7202 17.0004 15.8802 17.0004 14.2V12.8C17.0004 11.1198 17.0004 10.2798 16.6734 9.638C16.3858 9.0735 15.9269 8.6146 15.3624 8.327C15.0061 8.1455 14.5887 8.0647 14.0004 8.0288M4.00037 8.0288V6C4.00037 3.23858 6.23895 1 9.00037 1C11.7618 1 14.0004 3.23858 14.0004 6V8.0288" stroke="white" stroke-width="1.2" stroke-linecap="round" stroke-linejoin="round"/>
</svg>
