<svg width="516" height="776" viewBox="0 0 516 776" fill="none" xmlns="http://www.w3.org/2000/svg">
<g clip-path="url(#clip0_1621_4915)">
<g style="mix-blend-mode:overlay">
<path d="M620.023 648.523C611.767 691.845 510.334 755.658 473.782 736.619C393.595 694.882 433.697 804.671 385.832 830.4C349.539 849.846 299.374 834.439 264.728 807.133C222.138 773.504 232.82 739.227 194.401 708.703C137.057 663.16 114.28 662.168 87.0311 641.083C54.439 615.867 40.7853 583.083 49.0043 539.706C57.2232 496.329 101.923 470.138 128.805 438.948C156.624 406.805 157.313 330.68 197.38 316.669C236.234 303.088 300.566 355.763 343.943 363.982C387.265 372.237 437.963 366.289 469.136 393.263C501.279 421.081 502.421 472.75 516.432 512.817C530.013 551.671 628.242 605.146 620.023 648.523Z" stroke="#C8C7FF" stroke-opacity="0.1" stroke-width="1.7651" stroke-miterlimit="10" stroke-linecap="round"/>
<path d="M639.868 650.795C625.476 704.785 516.792 746.513 477.492 732.987C394.298 704.306 452.414 814.84 396.342 847.258C349.922 874.064 294.092 857.2 254.945 828.518C205.317 792.227 222.295 750.897 193.138 717.8C149.863 668.713 112.227 656.353 84.2996 644.523C51.7391 630.773 19.2911 593.417 28.2415 536.551C36.2293 485.726 87.6155 465.525 115.341 429.167C144.827 390.503 133.862 317.628 184.668 293.543C236.813 268.866 298.723 334.991 347.782 344.576C398.333 354.492 443.422 337.147 486.753 370.352C525.674 400.217 515.727 457.365 535.61 501.758C554.657 544.105 653.537 599.356 639.831 650.741L639.868 650.795Z" stroke="#C8C7FF" stroke-opacity="0.1" stroke-width="1.871" stroke-miterlimit="10" stroke-linecap="round"/>
<path d="M659.622 653.051C638.985 717.546 523.669 737.401 481.112 729.338C395.888 713.286 471.115 825.101 406.853 864.117C350.38 898.392 288.775 879.908 245.147 849.995C188.48 811.042 211.607 762.442 191.896 727.042C162.341 674.015 108.975 650.405 81.5887 648.11C47.2373 645.242 -1.96356 603.986 7.49944 533.541C15.3643 475.195 73.2923 461.004 101.898 419.532C133.105 374.311 110.392 304.431 171.921 270.6C237.247 234.664 296.792 314.439 351.587 325.353C409.33 336.876 448.593 308.281 504.336 347.624C549.893 379.791 528.891 442.236 554.755 490.881C579.121 536.742 678.654 593.767 659.605 653.142L659.622 653.051Z" stroke="#C8C7FF" stroke-opacity="0.1" stroke-width="1.97691" stroke-miterlimit="10" stroke-linecap="round"/>
<path d="M679.414 655.361C652.421 730.435 531.016 728.049 484.805 725.798C398.362 721.587 489.927 835.524 417.438 881.083C350.965 922.791 283.514 902.816 235.439 871.489C171.68 829.912 201.024 773.678 190.708 736.248C174.831 678.753 105.346 650.892 78.8409 651.642C43.5733 667.935 -23.2011 614.464 -13.2796 530.478C-5.46397 464.718 58.841 456.411 88.3274 409.825C121.182 357.938 86.8122 291.072 159.101 247.549C237.589 200.208 294.879 293.796 355.335 305.93C420.271 319.06 453.673 279.397 521.863 324.696C573.893 359.276 541.999 426.908 573.806 479.751C603.51 529.034 703.586 587.908 679.323 655.343L679.414 655.361Z" stroke="#C8C7FF" stroke-opacity="0.1" stroke-width="2.08282" stroke-miterlimit="10" stroke-linecap="round"/>
<path d="M699.26 657.633C665.912 743.286 538.632 718.277 488.515 722.166C401.264 728.883 508.738 845.946 427.949 897.941C351.46 947.172 278.179 925.614 225.695 892.929C154.789 848.763 190.657 784.529 189.52 745.453C187.699 682.997 102.386 647.121 76.184 655.191C39.9878 685.266 -44.3475 624.959 -33.9677 527.431C-26.2012 454.258 44.5349 451.798 74.9384 400.152C109.386 341.637 63.3598 277.783 146.463 224.532C238.058 165.824 293.11 273.133 359.249 286.633C431.377 301.369 458.809 250.713 539.537 301.985C598.022 339.068 555.2 411.833 593.042 468.892C628.065 521.688 728.612 582.302 699.242 657.724L699.26 657.633Z" stroke="#C8C7FF" stroke-opacity="0.1" stroke-width="2.18872" stroke-miterlimit="10" stroke-linecap="round"/>
<path d="M719.05 659.943C679.275 756.066 546.263 708.176 492.171 718.571C404.158 735.471 527.549 856.369 438.496 914.854C351.99 971.607 272.826 948.504 215.932 914.459C137.971 867.723 180.561 795.432 188.277 754.695C201.092 687.2 96.4639 639.343 73.4723 658.777C29.6171 695.881 -65.458 635.509 -54.7476 524.367C-46.9761 443.744 30.0462 447.15 61.4578 390.462C97.4989 325.318 39.7789 264.423 133.643 201.48C238.361 131.314 291.142 252.527 363.034 267.264C442.354 283.606 463.8 222.047 557.101 279.111C621.932 318.771 568.344 396.558 612.221 457.832C652.564 514.142 753.635 576.459 719.05 659.943Z" stroke="#C8C7FF" stroke-opacity="0.1" stroke-width="2.32993" stroke-miterlimit="10" stroke-linecap="round"/>
<path d="M738.841 662.252C692.62 768.937 553.781 697.678 495.827 714.976C406.974 741.478 546.396 866.846 449.043 931.766C352.558 996.096 267.474 971.394 206.187 935.899C121.079 886.574 170.793 806.351 187.089 763.901C214.887 691.527 93.1852 636.502 70.8149 662.326C25.5521 714.489 -86.5139 646.021 -75.4361 521.321C-67.6055 433.21 15.6486 442.52 48.0314 380.735C85.6291 308.908 16.2157 250.973 120.967 178.408C238.756 96.8213 289.336 231.81 366.91 247.913C453.459 265.916 468.773 193.473 574.755 256.255C646.025 298.509 581.525 381.338 631.399 446.774C677.008 506.633 778.566 570.599 738.895 662.215L738.841 662.252Z" stroke="#C8C7FF" stroke-opacity="0.1" stroke-width="2.43584" stroke-miterlimit="10" stroke-linecap="round"/>
<path d="M758.687 664.525C706.037 781.681 561.206 686.926 499.537 711.345C409.587 747.069 565.261 877.232 459.554 948.624C353.088 1020.53 262.121 994.284 196.442 957.339C104.17 905.517 161.136 817.433 185.863 773.052C228.866 696.124 90.2317 633.44 68.1209 665.822C22.1222 732.983 -107.516 656.497 -96.1614 518.22C-88.289 422.714 1.21433 437.836 34.5511 371.045C73.7421 292.589 -7.36486 237.614 108.238 155.374C239.06 62.3119 287.513 211.184 370.695 228.545C464.382 248.191 473.747 164.9 592.318 233.381C669.935 278.213 594.56 366.138 650.524 435.752C701.452 499.124 803.444 564.777 758.65 664.471L758.687 664.525Z" stroke="#C8C7FF" stroke-opacity="0.1" stroke-width="2.54174" stroke-miterlimit="10" stroke-linecap="round"/>
<path d="M778.478 666.834C719.347 794.497 568.393 675.939 503.23 707.804C411.854 752.5 584.092 887.8 470.139 965.591C353.694 1045.08 256.806 1017.23 186.735 978.832C87.353 924.477 151.499 828.659 184.767 782.274C243.084 700.955 87.5693 630.338 65.4644 669.371C19.0916 751.363 -128.517 666.972 -116.849 515.173C-108.918 412.18 -13.1824 433.206 21.1625 361.372C61.8731 276.179 -30.9447 224.253 95.546 132.393C239.493 27.8731 285.637 190.595 374.609 209.247C475.488 230.5 478.741 136.471 609.993 210.67C693.993 258.133 607.762 351.063 669.76 424.892C725.917 491.76 828.47 559.17 778.515 666.889L778.478 666.834Z" stroke="#C8C7FF" stroke-opacity="0.1" stroke-width="2.64765" stroke-miterlimit="10" stroke-linecap="round"/>
<path d="M798.287 669.054C732.673 807.224 575.396 664.683 506.904 704.119C413.936 757.66 602.958 898.187 480.613 982.395C354.188 1069.46 251.38 1040.01 176.899 1000.26C70.3534 943.403 141.753 839.96 183.451 791.409C256.994 705.918 84.8133 626.984 62.6797 672.849C16.1669 769.434 -149.609 677.432 -137.665 512.056C-129.692 401.666 -27.7441 428.451 7.60886 351.575C49.8218 259.736 -54.6353 210.732 82.7433 109.252C239.724 -6.7443 283.74 169.861 378.357 189.825C486.429 212.684 483.569 107.917 627.52 187.743C717.904 237.837 620.815 335.772 688.849 413.817C750.271 484.235 853.311 553.294 798.324 669.108L798.287 669.054Z" stroke="#C8C7FF" stroke-opacity="0.1" stroke-width="2.75355" stroke-miterlimit="10" stroke-linecap="round"/>
<path d="M818.078 671.363C745.944 819.986 582.199 653.481 510.559 700.524C415.636 762.841 621.805 908.663 491.16 999.307C354.755 1093.95 246.064 1062.95 167.19 1021.75C53.4439 962.345 132.026 851.404 182.298 800.668C271.05 711.095 82.2016 623.609 60.0587 676.452C13.4776 787.502 -170.537 688.015 -158.317 509.063C-150.285 391.186 -42.1053 423.874 -5.74423 341.955C38.0252 243.433 -78.1255 197.389 70.1043 86.2336C240.118 -41.2376 281.917 149.234 382.233 170.473C497.497 194.938 488.562 79.4872 645.174 164.886C741.888 217.648 633.941 320.588 708.027 402.757C774.715 476.725 878.243 547.434 818.132 671.326L818.078 671.363Z" stroke="#C8C7FF" stroke-opacity="0.1" stroke-width="2.85946" stroke-miterlimit="10" stroke-linecap="round"/>
<path d="M837.869 673.673C759.307 832.767 588.837 642.156 514.216 696.929C417.283 768.06 640.8 919.357 501.708 1016.22C355.544 1118.76 240.712 1085.84 157.446 1043.19C36.5896 981.251 122.262 862.796 181.073 809.82C285.016 716.257 79.6624 620.107 57.365 679.948C10.6959 805.317 -191.539 698.491 -179.079 505.909C-170.951 380.599 -56.6671 419.119 -19.2069 332.175C26.028 226.953 -101.909 183.614 57.3384 63.1457C240.165 -76.126 280.057 128.555 386.073 151.069C508.529 177.14 493.481 50.9507 662.792 141.976C765.926 197.424 647.069 305.405 727.206 391.699C799.16 469.217 903.138 541.52 837.941 673.545L837.869 673.673Z" stroke="#C8C7FF" stroke-opacity="0.1" stroke-width="2.96536" stroke-miterlimit="10" stroke-linecap="round"/>
<path d="M857.715 675.945C772.324 845.386 595.476 630.828 517.926 693.297C418.747 773.243 659.648 929.834 512.219 1033.08C356.093 1143.11 235.234 1108.9 147.647 1064.66C19.5206 1000.54 112.482 874.278 179.831 819.061C298.874 721.491 77.0321 616.587 54.5998 683.57C7.91428 823.131 -212.558 709.057 -199.876 502.935C-191.651 370.193 -71.1726 414.562 -32.7953 322.558C13.942 210.69 -125.598 170.327 44.5011 40.1843C240.398 -110.509 278.035 107.985 389.787 131.827C519.472 159.559 498.258 22.6687 680.23 119.267C789.694 177.383 659.871 290.442 746.206 380.841C823.299 462.074 927.672 535.773 857.606 676.019L857.715 675.945Z" stroke="#C8C7FF" stroke-opacity="0.1" stroke-width="3.10657" stroke-miterlimit="10" stroke-linecap="round"/>
<path d="M877.506 678.255C785.686 858.166 601.878 619.504 521.528 689.739C419.995 778.574 678.405 940.293 522.712 1050.03C356.606 1167.63 229.864 1131.88 137.848 1086.14C2.57495 1019.43 102.61 885.743 178.552 828.249C312.678 726.762 74.3647 613.014 51.8148 687.048C5.02187 840.784 -233.323 719.531 -220.692 499.817C-212.226 359.623 -86.0077 409.755 -46.3124 312.814C1.67143 194.156 -149.269 156.951 31.7347 17.0957C240.756 -145.055 276.175 87.3047 393.572 112.459C530.395 141.834 503.16 -5.77739 697.83 96.4472C813.624 157.231 672.998 275.259 765.367 369.873C847.781 454.619 952.641 529.967 877.397 678.328L877.506 678.255Z" stroke="#C8C7FF" stroke-opacity="0.1" stroke-width="3.21248" stroke-miterlimit="10" stroke-linecap="round"/>
<path d="M897.297 680.565C799.086 871.001 608.227 608.218 525.221 686.199C421.189 783.943 697.253 950.771 533.206 1066.98C357.083 1192.1 224.512 1154.77 128.086 1107.67C-14.2966 1038.43 92.8121 897.317 177.346 837.547C326.464 732.125 71.8256 609.512 49.1407 690.689C2.34871 858.526 -254.396 730.135 -241.397 496.863C-232.889 349.272 -100.385 405.271 -59.7186 303.233C-10.1783 177.893 -172.776 143.7 18.9885 -5.84682C241.08 -179.419 274.299 66.7165 397.394 93.1454C541.41 124.127 507.813 -33.6571 715.431 73.6286C837.502 137.354 686.125 260.077 784.493 358.852C872.226 447.111 977.556 524.199 897.206 680.548L897.297 680.565Z" stroke="#C8C7FF" stroke-opacity="0.1" stroke-width="3.31838" stroke-miterlimit="10" stroke-linecap="round"/>
<path d="M917.105 682.783C812.412 883.727 614.501 596.821 528.894 682.513C422.254 789.239 716.081 961.103 543.77 1083.8C357.668 1216.5 219.176 1177.57 118.34 1129.11C-31.2062 1057.37 83.05 908.944 176.175 846.661C340.542 737.685 69.229 605.811 46.5001 694.147C-0.381944 876.067 -275.381 740.52 -262.069 493.725C-253.556 338.684 -114.766 400.549 -73.1282 293.415C-22.0313 161.391 -196.286 130.212 6.32987 -29.0096C241.492 -214.003 272.492 45.9991 401.287 73.7027C552.495 106.291 512.857 -62.3594 733.102 50.6809C861.574 116.947 699.359 244.82 803.725 347.756C896.687 439.511 1002.6 518.266 917.105 682.783Z" stroke="#C8C7FF" stroke-opacity="0.1" stroke-width="3.42429" stroke-miterlimit="10" stroke-linecap="round"/>
<path d="M936.897 685.093C825.812 896.561 620.704 585.553 532.55 678.918C423.303 794.626 734.892 971.525 554.318 1100.71C358.199 1240.94 213.825 1200.46 108.596 1150.55C-48.0972 1076.22 73.0682 920.246 174.987 855.866C354.125 742.631 66.7616 602.18 43.8435 697.697C-3.11126 893.609 -296.436 751.032 -282.757 490.678C-274.239 328.187 -129.163 395.919 -86.571 283.779C-33.8808 145.127 -219.829 116.907 -6.362 -51.9897C241.87 -248.405 270.67 25.3733 405.147 54.4426C563.547 88.6368 517.905 -90.825 750.739 27.9156C885.65 96.7759 712.47 229.727 822.924 336.842C921.206 432.111 1027.58 512.605 936.934 685.147L936.897 685.093Z" stroke="#C8C7FF" stroke-opacity="0.1" stroke-width="3.5302" stroke-miterlimit="10" stroke-linecap="round"/>
</g>
</g>
<defs>
<clipPath id="clip0_1621_4915">
<rect width="1276.81" height="1206.32" fill="white" transform="translate(206.872 1341.13) rotate(-124.211)"/>
</clipPath>
</defs>
</svg>
