<svg width="195" height="60" viewBox="0 0 195 60" fill="none" xmlns="http://www.w3.org/2000/svg">
<rect x="0.857269" width="194.143" height="59.9862" rx="8.32938" fill="black"/>
<path d="M69.5045 15.7947C69.5297 16.3041 69.451 16.8134 69.2732 17.2914C69.0953 17.7694 68.822 18.2062 68.47 18.5752C68.0754 18.9844 67.5989 19.3057 67.0716 19.5181C66.5444 19.7304 65.9782 19.8291 65.4102 19.8076C64.8385 19.8127 64.2716 19.7035 63.7428 19.4864C63.2139 19.2693 62.7338 18.9486 62.3307 18.5433C61.9275 18.138 61.6095 17.6562 61.3952 17.1262C61.1809 16.5962 61.0748 16.0287 61.0829 15.4571C61.0748 14.8855 61.181 14.318 61.3953 13.788C61.6096 13.258 61.9277 12.7762 62.3308 12.3708C62.7339 11.9655 63.214 11.6448 63.7428 11.4276C64.2716 11.2104 64.8385 11.101 65.4102 11.106C65.9979 11.1042 66.5798 11.2231 67.1198 11.4551C67.6213 11.6584 68.0677 11.9773 68.4226 12.3858L67.6905 13.1185C67.4115 12.7901 67.0608 12.5302 66.6654 12.3589C66.27 12.1875 65.8406 12.1093 65.4102 12.1302C64.9769 12.128 64.5477 12.2132 64.1482 12.3808C63.7487 12.5484 63.3871 12.7948 63.085 13.1055C62.783 13.4161 62.5468 13.7845 62.3906 14.1886C62.2343 14.5927 62.1612 15.0241 62.1756 15.4571C62.1653 16.1057 62.3478 16.7427 62.7 17.2875C63.0522 17.8322 63.5582 18.26 64.1539 18.5168C64.7495 18.7735 65.4081 18.8476 66.0459 18.7296C66.6837 18.6116 67.2722 18.3069 67.7366 17.854C68.164 17.3935 68.4118 16.7947 68.4347 16.1668H65.4102V15.1663H69.4462C69.4843 15.3736 69.5039 15.5839 69.5045 15.7947Z" fill="white" stroke="white" stroke-width="0.277646" stroke-miterlimit="10"/>
<path d="M75.9033 12.316H72.1101V14.9569H75.5305V15.9575H72.1101V18.5983H75.9033V19.6219H71.0404V11.2925H75.9033V12.316Z" fill="white" stroke="white" stroke-width="0.277646" stroke-miterlimit="10"/>
<path d="M80.4164 19.6219H79.3454V12.316H77.019V11.2925H82.7428V12.316H80.4164V19.6219Z" fill="white" stroke="white" stroke-width="0.277646" stroke-miterlimit="10"/>
<path d="M86.8844 19.6219V11.2925H87.9541V19.6219H86.8844Z" fill="white" stroke="white" stroke-width="0.277646" stroke-miterlimit="10"/>
<path d="M92.7016 19.6219H91.6306V12.316H89.3043V11.2925H95.028V12.316H92.7016V19.6219Z" fill="white" stroke="white" stroke-width="0.277646" stroke-miterlimit="10"/>
<path d="M105.864 18.5455C105.053 19.3538 103.955 19.8076 102.81 19.8076C101.665 19.8076 100.567 19.3538 99.7561 18.5455C99.3551 18.1392 99.0398 17.6565 98.829 17.126C98.6182 16.5954 98.5163 16.0279 98.5292 15.4572C98.5163 14.8865 98.6182 14.319 98.829 13.7885C99.0398 13.2579 99.3551 12.7752 99.7561 12.369C100.157 11.9681 100.633 11.6503 101.156 11.4336C101.68 11.2169 102.241 11.1056 102.808 11.1061C103.375 11.1066 103.936 11.2189 104.459 11.4365C104.983 11.6541 105.458 11.9728 105.858 12.3744C106.259 12.7795 106.575 13.2612 106.787 13.7908C106.999 14.3203 107.102 14.887 107.09 15.4572C107.103 16.0279 107.001 16.5953 106.79 17.1258C106.579 17.6562 106.264 18.139 105.864 18.5455ZM100.546 17.848C101.147 18.4474 101.961 18.7841 102.809 18.7841C103.658 18.7841 104.471 18.4474 105.072 17.848C105.38 17.5328 105.621 17.1584 105.78 16.7475C105.939 16.3365 106.013 15.8976 105.998 15.4572C106.013 15.0168 105.939 14.5779 105.78 14.167C105.621 13.756 105.38 13.3816 105.072 13.0664C104.471 12.467 103.658 12.1303 102.809 12.1303C101.961 12.1303 101.147 12.467 100.546 13.0664C100.239 13.3819 99.9986 13.7564 99.8397 14.1672C99.6808 14.5781 99.6067 15.0169 99.6219 15.4572C99.6067 15.8975 99.6808 16.3363 99.8397 16.7472C99.9986 17.1581 100.239 17.5325 100.546 17.848Z" fill="white" stroke="white" stroke-width="0.277646" stroke-miterlimit="10"/>
<path d="M108.592 19.6219V11.2925H109.895L113.943 17.772H113.989L113.943 16.1668V11.2925H115.014V19.6219H113.897L109.662 12.8284H109.616L109.662 14.4336V19.6219H108.592Z" fill="white" stroke="white" stroke-width="0.277646" stroke-miterlimit="10"/>
<path d="M98.265 31.771C97.0981 31.7754 95.9588 32.1255 94.9908 32.7769C94.0227 33.4284 93.2694 34.3521 92.826 35.4314C92.3825 36.5106 92.2688 37.6971 92.4991 38.841C92.7295 39.9848 93.2936 41.0348 94.1202 41.8583C94.9469 42.6818 95.999 43.2419 97.1437 43.4679C98.2884 43.6939 99.4745 43.5757 100.552 43.1281C101.63 42.6806 102.55 41.9238 103.198 40.9533C103.846 39.9828 104.192 38.8421 104.192 37.6753C104.203 36.8948 104.058 36.1201 103.763 35.3971C103.469 34.6741 103.033 34.0176 102.48 33.4667C101.927 32.9159 101.269 32.4819 100.545 32.1906C99.8207 31.8992 99.0453 31.7565 98.265 31.771ZM98.265 41.2537C97.5464 41.3049 96.829 41.1386 96.2063 40.7765C95.5835 40.4143 95.0842 39.873 94.7734 39.2231C94.4626 38.5732 94.3547 37.8448 94.4636 37.1327C94.5726 36.4205 94.8935 35.7577 95.3844 35.2305C95.8754 34.7033 96.5137 34.3361 97.2162 34.1768C97.9188 34.0174 98.653 34.0733 99.3234 34.337C99.9938 34.6008 100.569 35.0603 100.975 35.6557C101.38 36.2511 101.597 36.9549 101.597 37.6753C101.619 38.1304 101.55 38.5853 101.393 39.0131C101.236 39.441 100.996 39.8332 100.685 40.1666C100.375 40.5001 100.001 40.7681 99.5849 40.9547C99.1693 41.1414 98.7205 41.2431 98.265 41.2537ZM85.3358 31.771C84.169 31.7754 83.0296 32.1254 82.0616 32.7769C81.0935 33.4283 80.3402 34.352 79.8967 35.4313C79.4533 36.5105 79.3395 37.697 79.5698 38.8409C79.8002 39.9848 80.3643 41.0347 81.1909 41.8583C82.0175 42.6818 83.0696 43.2419 84.2144 43.4679C85.3591 43.6939 86.5452 43.5757 87.6227 43.1281C88.7003 42.6806 89.6212 41.9238 90.2689 40.9533C90.9167 39.9828 91.2624 38.8421 91.2624 37.6753C91.2739 36.8948 91.1283 36.1201 90.8342 35.3971C90.5401 34.6741 90.1037 34.0177 89.5507 33.4668C88.9978 32.9159 88.3397 32.4819 87.6156 32.1906C86.8915 31.8993 86.1162 31.7566 85.3358 31.771ZM85.3358 41.2537C84.6172 41.3049 83.8999 41.1386 83.2771 40.7765C82.6544 40.4143 82.1551 39.873 81.8443 39.2231C81.5335 38.5732 81.4255 37.8448 81.5345 37.1327C81.6435 36.4205 81.9643 35.7577 82.4553 35.2305C82.9462 34.7033 83.5845 34.3361 84.2871 34.1768C84.9896 34.0174 85.7239 34.0733 86.3943 34.337C87.0646 34.6008 87.6401 35.0603 88.0456 35.6557C88.4512 36.2511 88.6681 36.9549 88.6681 37.6753C88.6899 38.1304 88.6205 38.5853 88.4638 39.0131C88.3072 39.441 88.0665 39.8332 87.756 40.1667C87.4455 40.5001 87.0714 40.7681 86.6558 40.9548C86.2401 41.1415 85.7913 41.2431 85.3358 41.2537ZM69.9559 33.5826V36.0874H75.9498C75.8634 37.2623 75.3826 38.3735 74.5855 39.2409C73.9848 39.8532 73.2625 40.3327 72.4651 40.6486C71.6676 40.9644 70.8129 41.1096 69.9559 41.0748C68.2039 41.051 66.5317 40.3384 65.3012 39.0911C64.0707 37.8438 63.3807 36.1621 63.3807 34.41C63.3807 32.6579 64.0707 30.9762 65.3012 29.7289C66.5317 28.4816 68.2039 27.769 69.9559 27.7453C71.6387 27.7233 73.2622 28.3662 74.4737 29.5344L76.2405 27.7676C75.4139 26.9493 74.4323 26.3042 73.3531 25.8702C72.2739 25.4362 71.1189 25.2221 69.9559 25.2403C68.7405 25.2226 67.5337 25.4467 66.4056 25.8996C65.2776 26.3525 64.2509 27.0251 63.3851 27.8784C62.5194 28.7316 61.8319 29.7484 61.3626 30.8697C60.8934 31.9911 60.6517 33.1945 60.6517 34.41C60.6517 35.6256 60.8934 36.829 61.3626 37.9503C61.8319 39.0716 62.5194 40.0884 63.3851 40.9417C64.2509 41.7949 65.2776 42.4675 66.4056 42.9204C67.5337 43.3733 68.7405 43.5974 69.9559 43.5797C71.1435 43.6289 72.3279 43.4251 73.4307 42.9817C74.5335 42.5382 75.5294 41.8654 76.3523 41.0077C77.8133 39.413 78.592 37.3098 78.5218 35.1481C78.5275 34.6232 78.4825 34.0989 78.3874 33.5826H69.9559ZM132.854 35.5282C132.499 34.4588 131.824 33.5245 130.92 32.8523C130.015 32.1801 128.926 31.8025 127.8 31.771C127.041 31.7757 126.291 31.9342 125.596 32.2369C124.9 32.5396 124.273 32.9802 123.752 33.5321C123.232 34.0839 122.829 34.7356 122.567 35.4478C122.306 36.1599 122.191 36.9177 122.231 37.6753C122.214 38.4515 122.353 39.2233 122.641 39.9444C122.929 40.6656 123.359 41.3213 123.906 41.8724C124.453 42.4235 125.106 42.8588 125.825 43.1521C126.543 43.4454 127.314 43.5909 128.091 43.5797C129.063 43.5851 130.022 43.3488 130.881 42.8921C131.74 42.4354 132.471 41.7725 133.011 40.963L130.998 39.6211C130.696 40.1219 130.27 40.5357 129.76 40.8219C129.25 41.1081 128.675 41.2569 128.091 41.2537C127.489 41.2767 126.894 41.1184 126.384 40.7994C125.873 40.4804 125.471 40.0153 125.228 39.4646L133.123 36.1993L132.854 35.5282ZM124.803 37.4965C124.775 37.0667 124.833 36.6358 124.974 36.2288C125.115 35.8218 125.335 35.447 125.623 35.1263C125.91 34.8056 126.259 34.5454 126.648 34.361C127.037 34.1765 127.459 34.0716 127.889 34.0523C128.337 34.0228 128.784 34.1258 129.174 34.3486C129.563 34.5713 129.879 34.9038 130.081 35.3047L124.803 37.4965ZM118.384 43.2218H120.978V25.8667H118.384V43.2218ZM114.135 33.0905H114.045C113.651 32.662 113.169 32.3226 112.633 32.095C112.097 31.8675 111.519 31.757 110.936 31.771C109.414 31.8358 107.975 32.4862 106.921 33.5864C105.867 34.6865 105.278 36.1515 105.278 37.6753C105.278 39.1992 105.867 40.6641 106.921 41.7643C107.975 42.8645 109.414 43.5149 110.936 43.5797C111.521 43.5952 112.102 43.4833 112.639 43.2515C113.176 43.0198 113.656 42.6739 114.045 42.2378H114.135V43.0877C114.135 45.3466 112.927 46.5542 110.981 46.5542C110.333 46.5387 109.703 46.3305 109.174 45.9561C108.644 45.5817 108.238 45.058 108.007 44.4519L105.748 45.3913C106.174 46.4279 106.899 47.3137 107.831 47.9353C108.764 48.5569 109.861 48.8859 110.981 48.8802C114.023 48.8802 116.595 47.0911 116.595 42.7298V32.1287H114.135V33.0905ZM111.16 41.2537C110.264 41.1777 109.428 40.7677 108.819 40.1051C108.21 39.4424 107.872 38.5753 107.872 37.6753C107.872 36.7754 108.21 35.9083 108.819 35.2456C109.428 34.5829 110.264 34.173 111.16 34.097C111.606 34.1187 112.044 34.2301 112.446 34.4245C112.848 34.6188 113.207 34.8921 113.501 35.2281C113.795 35.5641 114.019 35.956 114.158 36.3802C114.298 36.8045 114.351 37.2525 114.314 37.6976C114.348 38.14 114.294 38.5848 114.153 39.0055C114.012 39.4262 113.787 39.8141 113.493 40.1461C113.199 40.4781 112.84 40.7473 112.439 40.9376C112.039 41.1279 111.604 41.2354 111.16 41.2537ZM145.007 25.867H138.8V43.2218H141.39V36.6466H145.007C145.739 36.6868 146.472 36.5771 147.161 36.3244C147.85 36.0717 148.48 35.6812 149.013 35.1768C149.546 34.6723 149.97 34.0645 150.26 33.3906C150.55 32.7166 150.7 31.9905 150.7 31.2568C150.7 30.523 150.55 29.797 150.26 29.123C149.97 28.449 149.546 27.8413 149.013 27.3368C148.48 26.8324 147.85 26.4419 147.161 26.1892C146.472 25.9364 145.739 25.8268 145.007 25.867ZM145.074 34.2313H141.39V28.2824H145.074C145.469 28.2742 145.863 28.345 146.231 28.4908C146.599 28.6366 146.934 28.8544 147.217 29.1314C147.5 29.4085 147.725 29.7391 147.878 30.1041C148.031 30.4691 148.11 30.861 148.11 31.2569C148.11 31.6527 148.031 32.0446 147.878 32.4096C147.725 32.7746 147.5 33.1052 147.217 33.3823C146.934 33.6593 146.599 33.8771 146.231 34.0229C145.863 34.1687 145.469 34.2395 145.074 34.2313ZM161.082 31.7391C160.137 31.6839 159.196 31.9059 158.375 32.3779C157.554 32.8498 156.888 33.5512 156.46 34.396L158.76 35.3561C158.988 34.9368 159.333 34.5931 159.754 34.3671C160.174 34.141 160.651 34.0424 161.127 34.0834C161.784 34.0192 162.44 34.2182 162.95 34.6367C163.461 35.0552 163.785 35.6591 163.851 36.316V36.4947C163.019 36.0528 162.091 35.8227 161.149 35.8249C158.671 35.8249 156.148 37.1869 156.148 39.7322C156.172 40.2686 156.304 40.7948 156.535 41.2793C156.766 41.7639 157.092 42.1971 157.494 42.5532C157.896 42.9093 158.366 43.1811 158.874 43.3523C159.383 43.5236 159.922 43.5908 160.457 43.5501C161.109 43.5885 161.76 43.4513 162.341 43.1529C162.922 42.8545 163.413 42.4057 163.762 41.8533H163.851V43.1929H166.351V36.5394C166.351 33.4582 164.052 31.7391 161.082 31.7391ZM160.77 41.2504C159.921 41.2504 158.738 40.8263 158.738 39.7768C158.738 38.4373 160.211 37.9236 161.484 37.9236C162.311 37.9016 163.128 38.1021 163.851 38.5042C163.756 39.2569 163.391 39.9498 162.825 40.4546C162.258 40.9595 161.528 41.2421 160.77 41.2504ZM175.461 32.1186L172.491 39.6428H172.402L169.321 32.1186H166.53L171.152 42.6347L168.517 48.4844H171.219L178.341 32.1186H175.461ZM152.129 43.2218H154.719V25.867H152.129V43.2218Z" fill="white"/>
<path d="M18.1634 12.0394C17.7082 12.5837 17.4783 13.2814 17.5209 13.9897V44.6919C17.4782 45.4002 17.7081 46.098 18.1634 46.6423L18.2661 46.7424L35.4649 29.5437V29.1379L18.2661 11.9386L18.1634 12.0394Z" fill="url(#paint0_linear_1621_4967)"/>
<path d="M41.1976 35.2787L35.465 29.5434V29.1376L41.1989 23.4037L41.3282 23.4774L48.1205 27.3368C50.0607 28.4391 50.0607 30.2427 48.1205 31.3456L41.3282 35.205L41.1976 35.2787Z" fill="url(#paint1_linear_1621_4967)"/>
<path d="M41.3283 35.2047L35.4651 29.3409L18.1636 46.6423C18.5589 46.991 19.0638 47.1904 19.5907 47.2059C20.1175 47.2215 20.6333 47.0523 21.0485 46.7275L41.3283 35.2047Z" fill="url(#paint2_linear_1621_4967)"/>
<path d="M41.3283 23.477L21.0485 11.9541C20.6333 11.6294 20.1175 11.4601 19.5907 11.4757C19.0638 11.4913 18.5589 11.6907 18.1636 12.0393L35.4651 29.3409L41.3283 23.477Z" fill="url(#paint3_linear_1621_4967)"/>
<path opacity="0.2" d="M41.1991 35.0753L21.0485 46.5245C20.6493 46.8284 20.162 46.9942 19.6602 46.9969C19.1585 46.9996 18.6695 46.839 18.267 46.5393L18.1636 46.6427L18.2663 46.7428L18.267 46.7421C18.6694 47.0419 19.1584 47.2027 19.6602 47.2C20.162 47.1973 20.6493 47.0314 21.0485 46.7273L41.3283 35.2044L41.1991 35.0753Z" fill="white"/>
<path opacity="0.12" d="M18.1634 46.4402C17.7082 45.8959 17.4783 45.1981 17.5209 44.4899V44.6927C17.4783 45.401 17.7082 46.0987 18.1634 46.643L18.2668 46.5396L18.1634 46.4402Z" fill="white"/>
<path opacity="0.12" d="M48.1204 31.1423L41.1988 35.0754L41.3281 35.2045L48.1204 31.3451C48.5199 31.1717 48.8657 30.8943 49.1217 30.5419C49.3776 30.1895 49.5344 29.7749 49.5757 29.3413C49.4898 29.734 49.3136 30.1012 49.0609 30.4138C48.8083 30.7264 48.4863 30.9759 48.1204 31.1423Z" fill="white"/>
<path opacity="0.25" d="M21.0484 12.1576L48.1205 27.5391C48.4866 27.7055 48.8087 27.955 49.0613 28.2678C49.314 28.5806 49.4901 28.948 49.5758 29.3408C49.5348 28.907 49.3781 28.4922 49.1222 28.1396C48.8662 27.7871 48.5203 27.5096 48.1205 27.3363L21.0484 11.9547C19.1082 10.8523 17.521 11.768 17.521 13.9903V14.1931C17.521 11.971 19.1082 11.0553 21.0484 12.1576Z" fill="white"/>
<defs>
<linearGradient id="paint0_linear_1621_4967" x1="33.9397" y1="13.666" x2="10.6419" y2="36.9638" gradientUnits="userSpaceOnUse">
<stop stop-color="#00A0FF"/>
<stop offset="0.00657" stop-color="#00A1FF"/>
<stop offset="0.2601" stop-color="#00BEFF"/>
<stop offset="0.5122" stop-color="#00D2FF"/>
<stop offset="0.7604" stop-color="#00DFFF"/>
<stop offset="1" stop-color="#00E3FF"/>
</linearGradient>
<linearGradient id="paint1_linear_1621_4967" x1="50.6467" y1="29.3412" x2="17.0558" y2="29.3412" gradientUnits="userSpaceOnUse">
<stop stop-color="#FFE000"/>
<stop offset="0.4087" stop-color="#FFBD00"/>
<stop offset="0.7754" stop-color="#FFA500"/>
<stop offset="1" stop-color="#FF9C00"/>
</linearGradient>
<linearGradient id="paint2_linear_1621_4967" x1="38.1424" y1="32.5271" x2="6.54866" y2="64.1208" gradientUnits="userSpaceOnUse">
<stop stop-color="#FF3A44"/>
<stop offset="1" stop-color="#C31162"/>
</linearGradient>
<linearGradient id="paint3_linear_1621_4967" x1="13.8072" y1="1.81944" x2="27.9152" y2="15.9274" gradientUnits="userSpaceOnUse">
<stop stop-color="#32A071"/>
<stop offset="0.0685" stop-color="#2DA771"/>
<stop offset="0.4762" stop-color="#15CF74"/>
<stop offset="0.8009" stop-color="#06E775"/>
<stop offset="1" stop-color="#00F076"/>
</linearGradient>
</defs>
</svg>
