<svg width="24" height="24" viewBox="0 0 24 24" fill="none" xmlns="http://www.w3.org/2000/svg">
<path d="M4.91474 20.7015C4.44374 21.681 4.14599 22.3342 1.52324 22.4295C1.59824 19.899 2.08124 19.6275 3.04649 19.146C3.45149 18.9435 3.95624 18.6922 4.50224 18.273L3.58874 17.1067C3.15749 17.4382 2.76074 17.6122 2.37749 17.8027C0.76874 18.6052 0.0104896 19.395 0.0104896 23.1615L0.0232396 23.928L0.76049 23.9115C4.73624 23.9115 5.47949 23.013 6.22424 21.4665C6.38699 21.1275 6.47774 20.898 6.75299 20.4412L5.64074 19.431C5.30774 19.8862 5.09924 20.3182 4.91474 20.7V20.7015ZM16.5225 4.422C14.8635 4.422 13.5142 5.77125 13.5142 7.4295C13.5142 9.08775 14.8642 10.4377 16.5225 10.4377C18.1807 10.4377 19.5307 9.08775 19.5307 7.4295C19.5307 5.77125 18.1807 4.422 16.5225 4.422ZM16.5225 8.93175C15.6945 8.93175 15.0202 8.2575 15.0202 7.43025C15.0202 6.603 15.6937 5.92875 16.5225 5.92875C17.3512 5.92875 18.0247 6.603 18.0247 7.43025C18.0247 8.25825 17.3512 8.93175 16.5225 8.93175ZM23.9947 0.686998C23.9722 0.312748 23.6752 0.0127479 23.301 -0.0150021C23.301 -0.0150021 19.104 -0.321002 15.066 1.18725C13.5907 1.7385 12.3765 2.61075 11.2432 3.933C10.2982 5.0355 9.35924 7.0275 8.53049 8.682C8.21024 9.32025 7.90424 9.9315 7.64474 10.398H3.47249C3.25799 10.398 3.05399 10.4902 2.91149 10.65L0.16199 13.6297C-0.0135104 13.8285 -0.0720104 14.1045 0.00898961 14.3565C0.0899896 14.6085 0.29774 14.8005 0.55574 14.859L5.03099 15.882C5.33624 16.2585 5.84399 16.8217 6.65699 17.724L8.35274 19.6035L9.26549 23.4645C9.32549 23.7187 9.51374 23.9242 9.76274 24.0045C9.83849 24.0285 9.91724 24.0412 9.99449 24.0412C10.1715 24.0412 10.3447 23.979 10.4827 23.8605L13.2615 21.096C13.4272 20.9542 13.5232 20.7457 13.5232 20.5267V16.6567C13.8967 16.425 14.559 16.0672 15.1822 15.7185C16.8802 14.7697 19.416 13.5877 20.4667 12.6532C21.9472 11.3377 22.4857 10.3732 23.0152 8.9475C24.2737 5.55675 24.0075 0.884248 23.9947 0.686998ZM21.6097 8.42475C21.1477 9.669 20.7292 10.413 19.4707 11.5312C18.5415 12.357 15.999 13.5427 14.4502 14.409C13.2945 15.0547 12.6022 15.432 12.2985 15.6802C12.1237 15.822 12.0225 16.0357 12.0225 16.2607V20.181L10.44 21.9202L9.76574 19.0702C9.73649 18.948 9.67724 18.8347 9.59249 18.741C8.21324 17.2125 6.12974 14.9017 5.96999 14.718C5.86574 14.5912 5.72099 14.5012 5.55824 14.4637L2.12249 13.6777L3.80774 11.8965H8.07449C8.33549 11.8965 8.57774 11.7607 8.71349 11.5395C9.04349 11.0025 9.42599 10.2375 9.86999 9.35325C10.6215 7.85475 11.556 5.87175 12.381 4.90875C13.356 3.77175 14.3452 3.057 15.5895 2.592C18.3577 1.55775 21.2137 1.449 22.5195 1.45875C22.5435 2.84175 22.4917 6.048 21.609 8.4255L21.6097 8.42475Z" fill="white"/>
</svg>
