<svg width="24" height="24" viewBox="0 0 24 24" fill="none" xmlns="http://www.w3.org/2000/svg">
<path d="M10.7091 1.92703C11.477 0.99757 12.9015 0.99757 13.6694 1.92703L14.8214 3.3214C15.2277 3.81312 15.8516 4.07099 16.4865 4.00958L18.2895 3.83515C19.4925 3.71877 20.5026 4.7296 20.3853 5.93255L20.212 7.71004C20.1498 8.34797 20.4101 8.97488 20.9057 9.38122L22.289 10.5152C23.226 11.2833 23.226 12.7167 22.289 13.4848L20.9057 14.6188C20.4101 15.0252 20.1498 15.652 20.212 16.29L20.3853 18.0675C20.5026 19.2704 19.4925 20.2812 18.2895 20.1648L16.4865 19.9905C15.8516 19.929 15.2277 20.1869 14.8214 20.6786L13.6694 22.073C12.9015 23.0025 11.477 23.0025 10.7091 22.073L9.55708 20.6786C9.15083 20.1869 8.5269 19.929 7.89204 19.9905L6.08903 20.1648C4.88599 20.2812 3.87594 19.2704 3.99322 18.0675L4.16652 16.29C4.22872 15.652 3.96848 15.0252 3.47278 14.6188L2.08952 13.4848C1.15245 12.7167 1.15245 11.2833 2.08952 10.5152L3.47278 9.38122C3.96848 8.97488 4.22872 8.34797 4.16652 7.71004L3.99322 5.93255C3.87594 4.7296 4.88599 3.71877 6.08903 3.83515L7.89204 4.00958C8.5269 4.07099 9.15083 3.81312 9.55708 3.3214L10.7091 1.92703Z" stroke="white" stroke-width="1.5"/>
</svg>
